<svg xmlns="http://www.w3.org/2000/svg" width="900" height="320" viewBox="0 0 900 320" role="img" aria-label="GitHub stats for dr-winner">
<defs>
  <linearGradient id="bg" x1="0" y1="0" x2="0" y2="1"><stop offset="0" stop-color="#0c1424"/><stop offset="1" stop-color="#06090f"/></linearGradient>
  <pattern id="grid" width="26" height="26" patternUnits="userSpaceOnUse"><circle cx="1" cy="1" r="1" fill="#1f9c52" fill-opacity="0.05"/></pattern>
  <filter id="ng" x="-40%" y="-60%" width="180%" height="220%"><feGaussianBlur stdDeviation="2.6" result="b"/><feMerge><feMergeNode in="b"/><feMergeNode in="SourceGraphic"/></feMerge></filter>
  <clipPath id="body"><rect x="9" y="53" width="882" height="258"/></clipPath>
</defs>
<rect x="6" y="6" width="888" height="308" rx="16" fill="url(#bg)" stroke="#1a3a2a" stroke-width="1.5"/>
<g clip-path="url(#body)"><rect x="9" y="53" width="882" height="258" fill="url(#grid)"/></g>
<g font-family="'JetBrains Mono','SFMono-Regular',ui-monospace,Consolas,monospace">
  <circle cx="34" cy="30" r="6.5" fill="#ff5f57"/><circle cx="56" cy="30" r="6.5" fill="#f0b429"/><circle cx="78" cy="30" r="6.5" fill="#3fb950"/>
  <text x="450.0" y="35" text-anchor="middle" font-size="13.5" fill="#6b7a99" letter-spacing="0.5">dr-winner@soc: ~/metrics</text>
  <line x1="9" y1="52" x2="891" y2="52" stroke="#16233c" stroke-width="1.2"/>
  <text x="30" y="80" font-size="13" fill="#5b6b87">❯ gh api /stats --summary <tspan fill="#3fb950">✓ live</tspan></text>
  <line x1="580" y1="70" x2="580" y2="296" stroke="#16233c" stroke-width="1.2"/>
  <text x="606" y="80" font-size="12.5" fill="#6b7a99" letter-spacing="2">LANGUAGES</text>
</g>
<g font-family="'JetBrains Mono','SFMono-Regular',ui-monospace,Consolas,monospace"><g opacity="0"><animate attributeName="opacity" begin="0.00s" dur="0.5s" fill="freeze" values="0;1"/><animateTransform attributeName="transform" type="translate" begin="0.00s" dur="0.5s" fill="freeze" values="0 8;0 0"/><rect x="30" y="96" width="170" height="84" rx="10" fill="#0b1526" stroke="#16233c" stroke-width="1"/><rect x="30" y="96" width="3.5" height="84" rx="2" fill="#56d364"/><g fill="#56d364" stroke="none" transform="translate(46,111)"><rect x="0" y="0" width="4.4" height="4.4" rx="1" fill-opacity="0.35"/><rect x="0" y="6" width="4.4" height="4.4" rx="1" fill-opacity="0.9"/><rect x="0" y="12" width="4.4" height="4.4" rx="1" fill-opacity="0.55"/><rect x="6" y="0" width="4.4" height="4.4" rx="1" fill-opacity="0.7"/><rect x="6" y="6" width="4.4" height="4.4" rx="1" fill-opacity="0.4"/><rect x="6" y="12" width="4.4" height="4.4" rx="1" fill-opacity="1"/><rect x="12" y="0" width="4.4" height="4.4" rx="1" fill-opacity="0.5"/><rect x="12" y="6" width="4.4" height="4.4" rx="1" fill-opacity="0.8"/><rect x="12" y="12" width="4.4" height="4.4" rx="1" fill-opacity="0.45"/></g><text x="46" y="158" font-size="30" font-weight="700" fill="#56d364" filter="url(#ng)">2,739</text><text x="47" y="173" font-size="10" fill="#6b7a99" letter-spacing="1">TOTAL CONTRIBUTIONS</text></g><g opacity="0"><animate attributeName="opacity" begin="0.08s" dur="0.5s" fill="freeze" values="0;1"/><animateTransform attributeName="transform" type="translate" begin="0.08s" dur="0.5s" fill="freeze" values="0 8;0 0"/><rect x="215" y="96" width="170" height="84" rx="10" fill="#0b1526" stroke="#16233c" stroke-width="1"/><rect x="215" y="96" width="3.5" height="84" rx="2" fill="#3fb950"/><g stroke="#3fb950" stroke-width="1.6" fill="none" stroke-linecap="round" stroke-linejoin="round" transform="translate(231,111)"><circle cx="8" cy="8" r="3.4"/><path d="M8 0.5V4.6M8 11.4V15.5"/></g><text x="231" y="158" font-size="30" font-weight="700" fill="#3fb950" filter="url(#ng)">579</text><text x="232" y="173" font-size="10" fill="#6b7a99" letter-spacing="1">COMMITS · 12 MO</text></g><g opacity="0"><animate attributeName="opacity" begin="0.16s" dur="0.5s" fill="freeze" values="0;1"/><animateTransform attributeName="transform" type="translate" begin="0.16s" dur="0.5s" fill="freeze" values="0 8;0 0"/><rect x="400" y="96" width="170" height="84" rx="10" fill="#0b1526" stroke="#16233c" stroke-width="1"/><rect x="400" y="96" width="3.5" height="84" rx="2" fill="#2ea043"/><g stroke="#2ea043" stroke-width="1.6" fill="none" stroke-linecap="round" stroke-linejoin="round" transform="translate(416,111)"><circle cx="4" cy="3.5" r="2.6"/><circle cx="4" cy="12.5" r="2.6"/><circle cx="13" cy="3.5" r="2.6"/><path d="M4 6.1v3.8M13 6.1c0 4-9 2-9 6.4"/></g><text x="416" y="158" font-size="30" font-weight="700" fill="#2ea043" filter="url(#ng)">27</text><text x="417" y="173" font-size="10" fill="#6b7a99" letter-spacing="1">PULL REQUESTS</text></g><g opacity="0"><animate attributeName="opacity" begin="0.24s" dur="0.5s" fill="freeze" values="0;1"/><animateTransform attributeName="transform" type="translate" begin="0.24s" dur="0.5s" fill="freeze" values="0 8;0 0"/><rect x="30" y="192" width="170" height="84" rx="10" fill="#0b1526" stroke="#16233c" stroke-width="1"/><rect x="30" y="192" width="3.5" height="84" rx="2" fill="#f0b429"/><g fill="#f0b429" stroke="none" transform="translate(46,207)"><path d="M8 0.6l2.05 4.55 4.95.5-3.7 3.35 1.05 4.9L8 11.9l-4.35 2.4 1.05-4.9L1 5.65l4.95-.5z"/></g><text x="46" y="254" font-size="30" font-weight="700" fill="#f0b429" filter="url(#ng)">8</text><text x="47" y="269" font-size="10" fill="#6b7a99" letter-spacing="1">STARS EARNED</text></g><g opacity="0"><animate attributeName="opacity" begin="0.32s" dur="0.5s" fill="freeze" values="0;1"/><animateTransform attributeName="transform" type="translate" begin="0.32s" dur="0.5s" fill="freeze" values="0 8;0 0"/><rect x="215" y="192" width="170" height="84" rx="10" fill="#0b1526" stroke="#16233c" stroke-width="1"/><rect x="215" y="192" width="3.5" height="84" rx="2" fill="#3fb950"/><g stroke="#3fb950" stroke-width="1.6" fill="none" stroke-linecap="round" stroke-linejoin="round" transform="translate(231,207)"><rect x="1.5" y="2" width="13" height="12" rx="1.5"/><path d="M1.5 5.5h13M5 2v12"/></g><text x="231" y="254" font-size="30" font-weight="700" fill="#3fb950" filter="url(#ng)">113</text><text x="232" y="269" font-size="10" fill="#6b7a99" letter-spacing="1">REPOSITORIES</text></g><g opacity="0"><animate attributeName="opacity" begin="0.40s" dur="0.5s" fill="freeze" values="0;1"/><animateTransform attributeName="transform" type="translate" begin="0.40s" dur="0.5s" fill="freeze" values="0 8;0 0"/><rect x="400" y="192" width="170" height="84" rx="10" fill="#0b1526" stroke="#16233c" stroke-width="1"/><rect x="400" y="192" width="3.5" height="84" rx="2" fill="#56d364"/><g stroke="#56d364" stroke-width="1.6" fill="none" stroke-linecap="round" stroke-linejoin="round" transform="translate(416,207)"><circle cx="8" cy="5" r="3"/><path d="M2.5 14.5c0-3.3 2.5-5 5.5-5s5.5 1.7 5.5 5"/></g><text x="416" y="254" font-size="30" font-weight="700" fill="#56d364" filter="url(#ng)">30</text><text x="417" y="269" font-size="10" fill="#6b7a99" letter-spacing="1">FOLLOWERS</text></g><circle cx="610" cy="104" r="4" fill="#3178c6"/><text x="624" y="108" font-size="12.5" fill="#c9d6e8">TypeScript</text><text x="856" y="108" text-anchor="end" font-size="12" fill="#7d8ba5" font-weight="600">78.1%</text><rect x="606" y="115" width="250" height="7" rx="3.5" fill="#0e1a2e"/><rect x="606" y="115" width="0" height="7" rx="3.5" fill="#3178c6"><animate attributeName="width" begin="0.30s" dur="0.9s" fill="freeze" values="0;195.2" calcMode="spline" keyTimes="0;1" keySplines="0.2 0.7 0.2 1"/></rect><circle cx="610" cy="141" r="4" fill="#AA6746"/><text x="624" y="145" font-size="12.5" fill="#c9d6e8">Solidity</text><text x="856" y="145" text-anchor="end" font-size="12" fill="#7d8ba5" font-weight="600">9.8%</text><rect x="606" y="152" width="250" height="7" rx="3.5" fill="#0e1a2e"/><rect x="606" y="152" width="0" height="7" rx="3.5" fill="#AA6746"><animate attributeName="width" begin="0.42s" dur="0.9s" fill="freeze" values="0;24.5" calcMode="spline" keyTimes="0;1" keySplines="0.2 0.7 0.2 1"/></rect><circle cx="610" cy="178" r="4" fill="#f1e05a"/><text x="624" y="182" font-size="12.5" fill="#c9d6e8">JavaScript</text><text x="856" y="182" text-anchor="end" font-size="12" fill="#7d8ba5" font-weight="600">3.5%</text><rect x="606" y="189" width="250" height="7" rx="3.5" fill="#0e1a2e"/><rect x="606" y="189" width="0" height="7" rx="3.5" fill="#f1e05a"><animate attributeName="width" begin="0.54s" dur="0.9s" fill="freeze" values="0;8.7" calcMode="spline" keyTimes="0;1" keySplines="0.2 0.7 0.2 1"/></rect><circle cx="610" cy="215" r="4" fill="#663399"/><text x="624" y="219" font-size="12.5" fill="#c9d6e8">CSS</text><text x="856" y="219" text-anchor="end" font-size="12" fill="#7d8ba5" font-weight="600">2.9%</text><rect x="606" y="226" width="250" height="7" rx="3.5" fill="#0e1a2e"/><rect x="606" y="226" width="0" height="7" rx="3.5" fill="#663399"><animate attributeName="width" begin="0.66s" dur="0.9s" fill="freeze" values="0;7.3" calcMode="spline" keyTimes="0;1" keySplines="0.2 0.7 0.2 1"/></rect><circle cx="610" cy="252" r="4" fill="#555555"/><text x="624" y="256" font-size="12.5" fill="#c9d6e8">C</text><text x="856" y="256" text-anchor="end" font-size="12" fill="#7d8ba5" font-weight="600">1.6%</text><rect x="606" y="263" width="250" height="7" rx="3.5" fill="#0e1a2e"/><rect x="606" y="263" width="0" height="7" rx="3.5" fill="#555555"><animate attributeName="width" begin="0.78s" dur="0.9s" fill="freeze" values="0;4.0" calcMode="spline" keyTimes="0;1" keySplines="0.2 0.7 0.2 1"/></rect></g></svg>