<svg xmlns="http://www.w3.org/2000/svg" width="900" height="170" viewBox="0 0 900 170" fill="none" role="img" aria-label="Contribution activity for the last year">
  <defs>
    <linearGradient id="bg" x1="0" y1="0" x2="1" y2="1"><stop stop-color="#0C1A24"/><stop offset="1" stop-color="#08141D"/></linearGradient>
    <linearGradient id="signal" x1="0" y1="0" x2="1" y2="0"><stop stop-color="#50E3C2"/><stop offset="1" stop-color="#66A3FF"/></linearGradient>
    <pattern id="grid" width="24" height="24" patternUnits="userSpaceOnUse"><path d="M24 0H0V24" stroke="#8EC5D1" stroke-opacity="0.045"/></pattern>
  </defs>
  <rect width="900" height="170" rx="20" fill="url(#bg)"/>
  <rect width="900" height="170" rx="20" fill="url(#grid)"/>
  <path d="M1 1H899" stroke="url(#signal)" stroke-opacity="0.72"/>
<text x="28" y="37" font-family="'JetBrains Mono','SFMono-Regular',ui-monospace,Consolas,monospace" font-size="11.5" font-weight="600" letter-spacing="1.6" fill="#50E3C2">ACTIVITY / 365 DAYS</text><text x="872" y="37" text-anchor="end" font-family="'Inter','Segoe UI',-apple-system,BlinkMacSystemFont,Helvetica,Arial,sans-serif" font-size="12" fill="#9DB1BB">2,427 contributions</text><rect x="28" y="53" width="11" height="11" rx="2.5" fill="#174B4C"/><rect x="28" y="68" width="11" height="11" rx="2.5" fill="#174B4C"/><rect x="28" y="83" width="11" height="11" rx="2.5" fill="#174B4C"/><rect x="28" y="98" width="11" height="11" rx="2.5" fill="#174B4C"/><rect x="28" y="113" width="11" height="11" rx="2.5" fill="#174B4C"/><rect x="28" y="128" width="11" height="11" rx="2.5" fill="#174B4C"/><rect x="28" y="143" width="11" height="11" rx="2.5" fill="#152732"/><rect x="43" y="53" width="11" height="11" rx="2.5" fill="#152732"/><rect x="43" y="68" width="11" height="11" rx="2.5" fill="#174B4C"/><rect x="43" y="83" width="11" height="11" rx="2.5" fill="#174B4C"/><rect x="43" y="98" width="11" height="11" rx="2.5" fill="#152732"/><rect x="43" y="113" width="11" height="11" rx="2.5" fill="#152732"/><rect x="43" y="128" width="11" height="11" rx="2.5" fill="#174B4C"/><rect x="43" y="143" width="11" height="11" rx="2.5" fill="#174B4C"/><rect x="58" y="53" width="11" height="11" rx="2.5" fill="#152732"/><rect x="58" y="68" width="11" height="11" rx="2.5" fill="#174B4C"/><rect x="58" y="83" width="11" height="11" rx="2.5" fill="#174B4C"/><rect x="58" y="98" width="11" height="11" rx="2.5" fill="#174B4C"/><rect x="58" y="113" width="11" height="11" rx="2.5" fill="#152732"/><rect x="58" y="128" width="11" height="11" rx="2.5" fill="#174B4C"/><rect x="58" y="143" width="11" height="11" rx="2.5" fill="#174B4C"/><rect x="73" y="53" width="11" height="11" rx="2.5" fill="#152732"/><rect x="73" y="68" width="11" height="11" rx="2.5" fill="#174B4C"/><rect x="73" y="83" width="11" height="11" rx="2.5" fill="#174B4C"/><rect x="73" y="98" width="11" height="11" rx="2.5" fill="#152732"/><rect x="73" y="113" width="11" height="11" rx="2.5" fill="#174B4C"/><rect x="73" y="128" width="11" height="11" rx="2.5" fill="#174B4C"/><rect x="73" y="143" width="11" height="11" rx="2.5" fill="#174B4C"/><rect x="88" y="53" width="11" height="11" rx="2.5" fill="#174B4C"/><rect x="88" y="68" width="11" height="11" rx="2.5" fill="#174B4C"/><rect x="88" y="83" width="11" height="11" rx="2.5" fill="#152732"/><rect x="88" y="98" width="11" height="11" rx="2.5" fill="#174B4C"/><rect x="88" y="113" width="11" height="11" rx="2.5" fill="#174B4C"/><rect x="88" y="128" width="11" height="11" rx="2.5" fill="#174B4C"/><rect x="88" y="143" width="11" height="11" rx="2.5" fill="#174B4C"/><rect x="103" y="53" width="11" height="11" rx="2.5" fill="#174B4C"/><rect x="103" y="68" width="11" height="11" rx="2.5" fill="#174B4C"/><rect x="103" y="83" width="11" height="11" rx="2.5" fill="#174B4C"/><rect x="103" y="98" width="11" height="11" rx="2.5" fill="#152732"/><rect x="103" y="113" width="11" height="11" rx="2.5" fill="#152732"/><rect x="103" y="128" width="11" height="11" rx="2.5" fill="#174B4C"/><rect x="103" y="143" width="11" height="11" rx="2.5" fill="#174B4C"/><rect x="118" y="53" width="11" height="11" rx="2.5" fill="#152732"/><rect x="118" y="68" width="11" height="11" rx="2.5" fill="#152732"/><rect x="118" y="83" width="11" height="11" rx="2.5" fill="#152732"/><rect x="118" y="98" width="11" height="11" rx="2.5" fill="#174B4C"/><rect x="118" y="113" width="11" height="11" rx="2.5" fill="#152732"/><rect x="118" y="128" width="11" height="11" rx="2.5" fill="#152732"/><rect x="118" y="143" width="11" height="11" rx="2.5" fill="#174B4C"/><rect x="133" y="53" width="11" height="11" rx="2.5" fill="#152732"/><rect x="133" y="68" width="11" height="11" rx="2.5" fill="#174B4C"/><rect x="133" y="83" width="11" height="11" rx="2.5" fill="#152732"/><rect x="133" y="98" width="11" height="11" rx="2.5" fill="#174B4C"/><rect x="133" y="113" width="11" height="11" rx="2.5" fill="#152732"/><rect x="133" y="128" width="11" height="11" rx="2.5" fill="#174B4C"/><rect x="133" y="143" width="11" height="11" rx="2.5" fill="#174B4C"/><rect x="148" y="53" width="11" height="11" rx="2.5" fill="#174B4C"/><rect x="148" y="68" width="11" height="11" rx="2.5" fill="#174B4C"/><rect x="148" y="83" width="11" height="11" rx="2.5" fill="#174B4C"/><rect x="148" y="98" width="11" height="11" rx="2.5" fill="#174B4C"/><rect x="148" y="113" width="11" height="11" rx="2.5" fill="#174B4C"/><rect x="148" y="128" width="11" height="11" rx="2.5" fill="#152732"/><rect x="148" y="143" width="11" height="11" rx="2.5" fill="#152732"/><rect x="163" y="53" width="11" height="11" rx="2.5" fill="#174B4C"/><rect x="163" y="68" width="11" height="11" rx="2.5" fill="#174B4C"/><rect x="163" y="83" width="11" height="11" rx="2.5" fill="#174B4C"/><rect x="163" y="98" width="11" height="11" rx="2.5" fill="#152732"/><rect x="163" y="113" width="11" height="11" rx="2.5" fill="#152732"/><rect x="163" y="128" width="11" height="11" rx="2.5" fill="#174B4C"/><rect x="163" y="143" width="11" height="11" rx="2.5" fill="#152732"/><rect x="178" y="53" width="11" height="11" rx="2.5" fill="#174B4C"/><rect x="178" y="68" width="11" height="11" rx="2.5" fill="#174B4C"/><rect x="178" y="83" width="11" height="11" rx="2.5" fill="#174B4C"/><rect x="178" y="98" width="11" height="11" rx="2.5" fill="#152732"/><rect x="178" y="113" width="11" height="11" rx="2.5" fill="#152732"/><rect x="178" y="128" width="11" height="11" rx="2.5" fill="#152732"/><rect x="178" y="143" width="11" height="11" rx="2.5" fill="#152732"/><rect x="193" y="53" width="11" height="11" rx="2.5" fill="#174B4C"/><rect x="193" y="68" width="11" height="11" rx="2.5" fill="#152732"/><rect x="193" y="83" width="11" height="11" rx="2.5" fill="#152732"/><rect x="193" y="98" width="11" height="11" rx="2.5" fill="#152732"/><rect x="193" y="113" width="11" height="11" rx="2.5" fill="#152732"/><rect x="193" y="128" width="11" height="11" rx="2.5" fill="#152732"/><rect x="193" y="143" width="11" height="11" rx="2.5" fill="#152732"/><rect x="208" y="53" width="11" height="11" rx="2.5" fill="#152732"/><rect x="208" y="68" width="11" height="11" rx="2.5" fill="#152732"/><rect x="208" y="83" width="11" height="11" rx="2.5" fill="#152732"/><rect x="208" y="98" width="11" height="11" rx="2.5" fill="#152732"/><rect x="208" y="113" width="11" height="11" rx="2.5" fill="#152732"/><rect x="208" y="128" width="11" height="11" rx="2.5" fill="#152732"/><rect x="208" y="143" width="11" height="11" rx="2.5" fill="#152732"/><rect x="223" y="53" width="11" height="11" rx="2.5" fill="#152732"/><rect x="223" y="68" width="11" height="11" rx="2.5" fill="#152732"/><rect x="223" y="83" width="11" height="11" rx="2.5" fill="#152732"/><rect x="223" y="98" width="11" height="11" rx="2.5" fill="#152732"/><rect x="223" y="113" width="11" height="11" rx="2.5" fill="#174B4C"/><rect x="223" y="128" width="11" height="11" rx="2.5" fill="#152732"/><rect x="223" y="143" width="11" height="11" rx="2.5" fill="#152732"/><rect x="238" y="53" width="11" height="11" rx="2.5" fill="#152732"/><rect x="238" y="68" width="11" height="11" rx="2.5" fill="#152732"/><rect x="238" y="83" width="11" height="11" rx="2.5" fill="#152732"/><rect x="238" y="98" width="11" height="11" rx="2.5" fill="#152732"/><rect x="238" y="113" width="11" height="11" rx="2.5" fill="#174B4C"/><rect x="238" y="128" width="11" height="11" rx="2.5" fill="#152732"/><rect x="238" y="143" width="11" height="11" rx="2.5" fill="#152732"/><rect x="253" y="53" width="11" height="11" rx="2.5" fill="#152732"/><rect x="253" y="68" width="11" height="11" rx="2.5" fill="#152732"/><rect x="253" y="83" width="11" height="11" rx="2.5" fill="#152732"/><rect x="253" y="98" width="11" height="11" rx="2.5" fill="#152732"/><rect x="253" y="113" width="11" height="11" rx="2.5" fill="#174B4C"/><rect x="253" y="128" width="11" height="11" rx="2.5" fill="#174B4C"/><rect x="253" y="143" width="11" height="11" rx="2.5" fill="#174B4C"/><rect x="268" y="53" width="11" height="11" rx="2.5" fill="#174B4C"/><rect x="268" y="68" width="11" height="11" rx="2.5" fill="#152732"/><rect x="268" y="83" width="11" height="11" rx="2.5" fill="#152732"/><rect x="268" y="98" width="11" height="11" rx="2.5" fill="#174B4C"/><rect x="268" y="113" width="11" height="11" rx="2.5" fill="#152732"/><rect x="268" y="128" width="11" height="11" rx="2.5" fill="#152732"/><rect x="268" y="143" width="11" height="11" rx="2.5" fill="#152732"/><rect x="283" y="53" width="11" height="11" rx="2.5" fill="#152732"/><rect x="283" y="68" width="11" height="11" rx="2.5" fill="#152732"/><rect x="283" y="83" width="11" height="11" rx="2.5" fill="#152732"/><rect x="283" y="98" width="11" height="11" rx="2.5" fill="#174B4C"/><rect x="283" y="113" width="11" height="11" rx="2.5" fill="#152732"/><rect x="283" y="128" width="11" height="11" rx="2.5" fill="#174B4C"/><rect x="283" y="143" width="11" height="11" rx="2.5" fill="#174B4C"/><rect x="298" y="53" width="11" height="11" rx="2.5" fill="#174B4C"/><rect x="298" y="68" width="11" height="11" rx="2.5" fill="#152732"/><rect x="298" y="83" width="11" height="11" rx="2.5" fill="#152732"/><rect x="298" y="98" width="11" height="11" rx="2.5" fill="#152732"/><rect x="298" y="113" width="11" height="11" rx="2.5" fill="#152732"/><rect x="298" y="128" width="11" height="11" rx="2.5" fill="#152732"/><rect x="298" y="143" width="11" height="11" rx="2.5" fill="#152732"/><rect x="313" y="53" width="11" height="11" rx="2.5" fill="#174B4C"/><rect x="313" y="68" width="11" height="11" rx="2.5" fill="#174B4C"/><rect x="313" y="83" width="11" height="11" rx="2.5" fill="#152732"/><rect x="313" y="98" width="11" height="11" rx="2.5" fill="#152732"/><rect x="313" y="113" width="11" height="11" rx="2.5" fill="#152732"/><rect x="313" y="128" width="11" height="11" rx="2.5" fill="#152732"/><rect x="313" y="143" width="11" height="11" rx="2.5" fill="#152732"/><rect x="328" y="53" width="11" height="11" rx="2.5" fill="#152732"/><rect x="328" y="68" width="11" height="11" rx="2.5" fill="#152732"/><rect x="328" y="83" width="11" height="11" rx="2.5" fill="#174B4C"/><rect x="328" y="98" width="11" height="11" rx="2.5" fill="#152732"/><rect x="328" y="113" width="11" height="11" rx="2.5" fill="#174B4C"/><rect x="328" y="128" width="11" height="11" rx="2.5" fill="#174B4C"/><rect x="328" y="143" width="11" height="11" rx="2.5" fill="#152732"/><rect x="343" y="53" width="11" height="11" rx="2.5" fill="#152732"/><rect x="343" y="68" width="11" height="11" rx="2.5" fill="#152732"/><rect x="343" y="83" width="11" height="11" rx="2.5" fill="#152732"/><rect x="343" y="98" width="11" height="11" rx="2.5" fill="#152732"/><rect x="343" y="113" width="11" height="11" rx="2.5" fill="#152732"/><rect x="343" y="128" width="11" height="11" rx="2.5" fill="#152732"/><rect x="343" y="143" width="11" height="11" rx="2.5" fill="#174B4C"/><rect x="358" y="53" width="11" height="11" rx="2.5" fill="#152732"/><rect x="358" y="68" width="11" height="11" rx="2.5" fill="#174B4C"/><rect x="358" y="83" width="11" height="11" rx="2.5" fill="#152732"/><rect x="358" y="98" width="11" height="11" rx="2.5" fill="#174B4C"/><rect x="358" y="113" width="11" height="11" rx="2.5" fill="#174B4C"/><rect x="358" y="128" width="11" height="11" rx="2.5" fill="#152732"/><rect x="358" y="143" width="11" height="11" rx="2.5" fill="#152732"/><rect x="373" y="53" width="11" height="11" rx="2.5" fill="#174B4C"/><rect x="373" y="68" width="11" height="11" rx="2.5" fill="#174B4C"/><rect x="373" y="83" width="11" height="11" rx="2.5" fill="#152732"/><rect x="373" y="98" width="11" height="11" rx="2.5" fill="#174B4C"/><rect x="373" y="113" width="11" height="11" rx="2.5" fill="#174B4C"/><rect x="373" y="128" width="11" height="11" rx="2.5" fill="#174B4C"/><rect x="373" y="143" width="11" height="11" rx="2.5" fill="#174B4C"/><rect x="388" y="53" width="11" height="11" rx="2.5" fill="#174B4C"/><rect x="388" y="68" width="11" height="11" rx="2.5" fill="#152732"/><rect x="388" y="83" width="11" height="11" rx="2.5" fill="#174B4C"/><rect x="388" y="98" width="11" height="11" rx="2.5" fill="#174B4C"/><rect x="388" y="113" width="11" height="11" rx="2.5" fill="#174B4C"/><rect x="388" y="128" width="11" height="11" rx="2.5" fill="#152732"/><rect x="388" y="143" width="11" height="11" rx="2.5" fill="#152732"/><rect x="403" y="53" width="11" height="11" rx="2.5" fill="#152732"/><rect x="403" y="68" width="11" height="11" rx="2.5" fill="#174B4C"/><rect x="403" y="83" width="11" height="11" rx="2.5" fill="#152732"/><rect x="403" y="98" width="11" height="11" rx="2.5" fill="#152732"/><rect x="403" y="113" width="11" height="11" rx="2.5" fill="#174B4C"/><rect x="403" y="128" width="11" height="11" rx="2.5" fill="#174B4C"/><rect x="403" y="143" width="11" height="11" rx="2.5" fill="#174B4C"/><rect x="418" y="53" width="11" height="11" rx="2.5" fill="#174B4C"/><rect x="418" y="68" width="11" height="11" rx="2.5" fill="#174B4C"/><rect x="418" y="83" width="11" height="11" rx="2.5" fill="#174B4C"/><rect x="418" y="98" width="11" height="11" rx="2.5" fill="#174B4C"/><rect x="418" y="113" width="11" height="11" rx="2.5" fill="#152732"/><rect x="418" y="128" width="11" height="11" rx="2.5" fill="#174B4C"/><rect x="418" y="143" width="11" height="11" rx="2.5" fill="#174B4C"/><rect x="433" y="53" width="11" height="11" rx="2.5" fill="#174B4C"/><rect x="433" y="68" width="11" height="11" rx="2.5" fill="#152732"/><rect x="433" y="83" width="11" height="11" rx="2.5" fill="#152732"/><rect x="433" y="98" width="11" height="11" rx="2.5" fill="#174B4C"/><rect x="433" y="113" width="11" height="11" rx="2.5" fill="#152732"/><rect x="433" y="128" width="11" height="11" rx="2.5" fill="#152732"/><rect x="433" y="143" width="11" height="11" rx="2.5" fill="#174B4C"/><rect x="448" y="53" width="11" height="11" rx="2.5" fill="#174B4C"/><rect x="448" y="68" width="11" height="11" rx="2.5" fill="#152732"/><rect x="448" y="83" width="11" height="11" rx="2.5" fill="#152732"/><rect x="448" y="98" width="11" height="11" rx="2.5" fill="#152732"/><rect x="448" y="113" width="11" height="11" rx="2.5" fill="#152732"/><rect x="448" y="128" width="11" height="11" rx="2.5" fill="#152732"/><rect x="448" y="143" width="11" height="11" rx="2.5" fill="#152732"/><rect x="463" y="53" width="11" height="11" rx="2.5" fill="#174B4C"/><rect x="463" y="68" width="11" height="11" rx="2.5" fill="#152732"/><rect x="463" y="83" width="11" height="11" rx="2.5" fill="#152732"/><rect x="463" y="98" width="11" height="11" rx="2.5" fill="#174B4C"/><rect x="463" y="113" width="11" height="11" rx="2.5" fill="#174B4C"/><rect x="463" y="128" width="11" height="11" rx="2.5" fill="#1C7A70"/><rect x="463" y="143" width="11" height="11" rx="2.5" fill="#174B4C"/><rect x="478" y="53" width="11" height="11" rx="2.5" fill="#174B4C"/><rect x="478" y="68" width="11" height="11" rx="2.5" fill="#174B4C"/><rect x="478" y="83" width="11" height="11" rx="2.5" fill="#174B4C"/><rect x="478" y="98" width="11" height="11" rx="2.5" fill="#152732"/><rect x="478" y="113" width="11" height="11" rx="2.5" fill="#152732"/><rect x="478" y="128" width="11" height="11" rx="2.5" fill="#174B4C"/><rect x="478" y="143" width="11" height="11" rx="2.5" fill="#174B4C"/><rect x="493" y="53" width="11" height="11" rx="2.5" fill="#152732"/><rect x="493" y="68" width="11" height="11" rx="2.5" fill="#152732"/><rect x="493" y="83" width="11" height="11" rx="2.5" fill="#152732"/><rect x="493" y="98" width="11" height="11" rx="2.5" fill="#174B4C"/><rect x="493" y="113" width="11" height="11" rx="2.5" fill="#174B4C"/><rect x="493" y="128" width="11" height="11" rx="2.5" fill="#174B4C"/><rect x="493" y="143" width="11" height="11" rx="2.5" fill="#174B4C"/><rect x="508" y="53" width="11" height="11" rx="2.5" fill="#152732"/><rect x="508" y="68" width="11" height="11" rx="2.5" fill="#174B4C"/><rect x="508" y="83" width="11" height="11" rx="2.5" fill="#152732"/><rect x="508" y="98" width="11" height="11" rx="2.5" fill="#152732"/><rect x="508" y="113" width="11" height="11" rx="2.5" fill="#174B4C"/><rect x="508" y="128" width="11" height="11" rx="2.5" fill="#152732"/><rect x="508" y="143" width="11" height="11" rx="2.5" fill="#152732"/><rect x="523" y="53" width="11" height="11" rx="2.5" fill="#152732"/><rect x="523" y="68" width="11" height="11" rx="2.5" fill="#174B4C"/><rect x="523" y="83" width="11" height="11" rx="2.5" fill="#174B4C"/><rect x="523" y="98" width="11" height="11" rx="2.5" fill="#152732"/><rect x="523" y="113" width="11" height="11" rx="2.5" fill="#152732"/><rect x="523" y="128" width="11" height="11" rx="2.5" fill="#174B4C"/><rect x="523" y="143" width="11" height="11" rx="2.5" fill="#174B4C"/><rect x="538" y="53" width="11" height="11" rx="2.5" fill="#174B4C"/><rect x="538" y="68" width="11" height="11" rx="2.5" fill="#152732"/><rect x="538" y="83" width="11" height="11" rx="2.5" fill="#174B4C"/><rect x="538" y="98" width="11" height="11" rx="2.5" fill="#152732"/><rect x="538" y="113" width="11" height="11" rx="2.5" fill="#152732"/><rect x="538" y="128" width="11" height="11" rx="2.5" fill="#174B4C"/><rect x="538" y="143" width="11" height="11" rx="2.5" fill="#174B4C"/><rect x="553" y="53" width="11" height="11" rx="2.5" fill="#152732"/><rect x="553" y="68" width="11" height="11" rx="2.5" fill="#152732"/><rect x="553" y="83" width="11" height="11" rx="2.5" fill="#174B4C"/><rect x="553" y="98" width="11" height="11" rx="2.5" fill="#174B4C"/><rect x="553" y="113" width="11" height="11" rx="2.5" fill="#174B4C"/><rect x="553" y="128" width="11" height="11" rx="2.5" fill="#174B4C"/><rect x="553" y="143" width="11" height="11" rx="2.5" fill="#152732"/><rect x="568" y="53" width="11" height="11" rx="2.5" fill="#174B4C"/><rect x="568" y="68" width="11" height="11" rx="2.5" fill="#174B4C"/><rect x="568" y="83" width="11" height="11" rx="2.5" fill="#152732"/><rect x="568" y="98" width="11" height="11" rx="2.5" fill="#174B4C"/><rect x="568" y="113" width="11" height="11" rx="2.5" fill="#152732"/><rect x="568" y="128" width="11" height="11" rx="2.5" fill="#152732"/><rect x="568" y="143" width="11" height="11" rx="2.5" fill="#152732"/><rect x="583" y="53" width="11" height="11" rx="2.5" fill="#174B4C"/><rect x="583" y="68" width="11" height="11" rx="2.5" fill="#174B4C"/><rect x="583" y="83" width="11" height="11" rx="2.5" fill="#174B4C"/><rect x="583" y="98" width="11" height="11" rx="2.5" fill="#174B4C"/><rect x="583" y="113" width="11" height="11" rx="2.5" fill="#174B4C"/><rect x="583" y="128" width="11" height="11" rx="2.5" fill="#152732"/><rect x="583" y="143" width="11" height="11" rx="2.5" fill="#152732"/><rect x="598" y="53" width="11" height="11" rx="2.5" fill="#174B4C"/><rect x="598" y="68" width="11" height="11" rx="2.5" fill="#174B4C"/><rect x="598" y="83" width="11" height="11" rx="2.5" fill="#174B4C"/><rect x="598" y="98" width="11" height="11" rx="2.5" fill="#174B4C"/><rect x="598" y="113" width="11" height="11" rx="2.5" fill="#174B4C"/><rect x="598" y="128" width="11" height="11" rx="2.5" fill="#1C7A70"/><rect x="598" y="143" width="11" height="11" rx="2.5" fill="#174B4C"/><rect x="613" y="53" width="11" height="11" rx="2.5" fill="#174B4C"/><rect x="613" y="68" width="11" height="11" rx="2.5" fill="#174B4C"/><rect x="613" y="83" width="11" height="11" rx="2.5" fill="#174B4C"/><rect x="613" y="98" width="11" height="11" rx="2.5" fill="#174B4C"/><rect x="613" y="113" width="11" height="11" rx="2.5" fill="#174B4C"/><rect x="613" y="128" width="11" height="11" rx="2.5" fill="#35B89F"/><rect x="613" y="143" width="11" height="11" rx="2.5" fill="#174B4C"/><rect x="628" y="53" width="11" height="11" rx="2.5" fill="#174B4C"/><rect x="628" y="68" width="11" height="11" rx="2.5" fill="#174B4C"/><rect x="628" y="83" width="11" height="11" rx="2.5" fill="#1C7A70"/><rect x="628" y="98" width="11" height="11" rx="2.5" fill="#174B4C"/><rect x="628" y="113" width="11" height="11" rx="2.5" fill="#174B4C"/><rect x="628" y="128" width="11" height="11" rx="2.5" fill="#174B4C"/><rect x="628" y="143" width="11" height="11" rx="2.5" fill="#1C7A70"/><rect x="643" y="53" width="11" height="11" rx="2.5" fill="#174B4C"/><rect x="643" y="68" width="11" height="11" rx="2.5" fill="#174B4C"/><rect x="643" y="83" width="11" height="11" rx="2.5" fill="#174B4C"/><rect x="643" y="98" width="11" height="11" rx="2.5" fill="#174B4C"/><rect x="643" y="113" width="11" height="11" rx="2.5" fill="#174B4C"/><rect x="643" y="128" width="11" height="11" rx="2.5" fill="#174B4C"/><rect x="643" y="143" width="11" height="11" rx="2.5" fill="#174B4C"/><rect x="658" y="53" width="11" height="11" rx="2.5" fill="#174B4C"/><rect x="658" y="68" width="11" height="11" rx="2.5" fill="#174B4C"/><rect x="658" y="83" width="11" height="11" rx="2.5" fill="#174B4C"/><rect x="658" y="98" width="11" height="11" rx="2.5" fill="#174B4C"/><rect x="658" y="113" width="11" height="11" rx="2.5" fill="#174B4C"/><rect x="658" y="128" width="11" height="11" rx="2.5" fill="#174B4C"/><rect x="658" y="143" width="11" height="11" rx="2.5" fill="#174B4C"/><rect x="673" y="53" width="11" height="11" rx="2.5" fill="#174B4C"/><rect x="673" y="68" width="11" height="11" rx="2.5" fill="#174B4C"/><rect x="673" y="83" width="11" height="11" rx="2.5" fill="#174B4C"/><rect x="673" y="98" width="11" height="11" rx="2.5" fill="#174B4C"/><rect x="673" y="113" width="11" height="11" rx="2.5" fill="#174B4C"/><rect x="673" y="128" width="11" height="11" rx="2.5" fill="#1C7A70"/><rect x="673" y="143" width="11" height="11" rx="2.5" fill="#174B4C"/><rect x="688" y="53" width="11" height="11" rx="2.5" fill="#174B4C"/><rect x="688" y="68" width="11" height="11" rx="2.5" fill="#174B4C"/><rect x="688" y="83" width="11" height="11" rx="2.5" fill="#174B4C"/><rect x="688" y="98" width="11" height="11" rx="2.5" fill="#1C7A70"/><rect x="688" y="113" width="11" height="11" rx="2.5" fill="#1C7A70"/><rect x="688" y="128" width="11" height="11" rx="2.5" fill="#174B4C"/><rect x="688" y="143" width="11" height="11" rx="2.5" fill="#152732"/><rect x="703" y="53" width="11" height="11" rx="2.5" fill="#174B4C"/><rect x="703" y="68" width="11" height="11" rx="2.5" fill="#174B4C"/><rect x="703" y="83" width="11" height="11" rx="2.5" fill="#174B4C"/><rect x="703" y="98" width="11" height="11" rx="2.5" fill="#174B4C"/><rect x="703" y="113" width="11" height="11" rx="2.5" fill="#35B89F"/><rect x="703" y="128" width="11" height="11" rx="2.5" fill="#1C7A70"/><rect x="703" y="143" width="11" height="11" rx="2.5" fill="#1C7A70"/><rect x="718" y="53" width="11" height="11" rx="2.5" fill="#50E3C2"/><rect x="718" y="68" width="11" height="11" rx="2.5" fill="#152732"/><rect x="718" y="83" width="11" height="11" rx="2.5" fill="#1C7A70"/><rect x="718" y="98" width="11" height="11" rx="2.5" fill="#152732"/><rect x="718" y="113" width="11" height="11" rx="2.5" fill="#1C7A70"/><rect x="718" y="128" width="11" height="11" rx="2.5" fill="#174B4C"/><rect x="718" y="143" width="11" height="11" rx="2.5" fill="#152732"/><rect x="733" y="53" width="11" height="11" rx="2.5" fill="#174B4C"/><rect x="733" y="68" width="11" height="11" rx="2.5" fill="#174B4C"/><rect x="733" y="83" width="11" height="11" rx="2.5" fill="#174B4C"/><rect x="733" y="98" width="11" height="11" rx="2.5" fill="#174B4C"/><rect x="733" y="113" width="11" height="11" rx="2.5" fill="#174B4C"/><rect x="733" y="128" width="11" height="11" rx="2.5" fill="#174B4C"/><rect x="733" y="143" width="11" height="11" rx="2.5" fill="#174B4C"/><rect x="748" y="53" width="11" height="11" rx="2.5" fill="#174B4C"/><rect x="748" y="68" width="11" height="11" rx="2.5" fill="#174B4C"/><rect x="748" y="83" width="11" height="11" rx="2.5" fill="#174B4C"/><rect x="748" y="98" width="11" height="11" rx="2.5" fill="#174B4C"/><rect x="748" y="113" width="11" height="11" rx="2.5" fill="#174B4C"/><rect x="748" y="128" width="11" height="11" rx="2.5" fill="#174B4C"/><rect x="748" y="143" width="11" height="11" rx="2.5" fill="#174B4C"/><rect x="763" y="53" width="11" height="11" rx="2.5" fill="#174B4C"/><rect x="763" y="68" width="11" height="11" rx="2.5" fill="#152732"/><rect x="763" y="83" width="11" height="11" rx="2.5" fill="#152732"/><rect x="763" y="98" width="11" height="11" rx="2.5" fill="#152732"/><rect x="763" y="113" width="11" height="11" rx="2.5" fill="#152732"/><rect x="763" y="128" width="11" height="11" rx="2.5" fill="#174B4C"/><rect x="763" y="143" width="11" height="11" rx="2.5" fill="#174B4C"/><rect x="778" y="53" width="11" height="11" rx="2.5" fill="#174B4C"/><rect x="778" y="68" width="11" height="11" rx="2.5" fill="#174B4C"/><rect x="778" y="83" width="11" height="11" rx="2.5" fill="#174B4C"/><rect x="778" y="98" width="11" height="11" rx="2.5" fill="#152732"/><rect x="778" y="113" width="11" height="11" rx="2.5" fill="#174B4C"/><rect x="778" y="128" width="11" height="11" rx="2.5" fill="#174B4C"/><rect x="778" y="143" width="11" height="11" rx="2.5" fill="#152732"/><rect x="793" y="53" width="11" height="11" rx="2.5" fill="#152732"/><rect x="793" y="68" width="11" height="11" rx="2.5" fill="#174B4C"/><rect x="793" y="83" width="11" height="11" rx="2.5" fill="#152732"/><rect x="793" y="98" width="11" height="11" rx="2.5" fill="#152732"/><rect x="793" y="113" width="11" height="11" rx="2.5" fill="#152732"/><rect x="793" y="128" width="11" height="11" rx="2.5" fill="#174B4C"/><rect x="793" y="143" width="11" height="11" rx="2.5" fill="#152732"/><rect x="808" y="53" width="11" height="11" rx="2.5" fill="#174B4C"/><rect x="0.75" y="0.75" width="898.5" height="168.5" rx="19.25" stroke="#8EC5D1" stroke-opacity="0.20" stroke-width="1.5"/></svg>