<svg xmlns="http://www.w3.org/2000/svg" width="900" height="242" viewBox="0 0 900 242" role="img" aria-label="dr-winner@soc: ~/now"><defs>
  <linearGradient id="bgnow" x1="0" y1="0" x2="0" y2="1"><stop offset="0" stop-color="#0c1424"/><stop offset="1" stop-color="#06090f"/></linearGradient>
  <pattern id="gridnow" width="24" height="24" patternUnits="userSpaceOnUse"><circle cx="1" cy="1" r="1" fill="#1f9c52" fill-opacity="0.05"/></pattern>
  <filter id="ngnow" x="-40%" y="-60%" width="180%" height="220%"><feGaussianBlur stdDeviation="2" result="b"/><feMerge><feMergeNode in="b"/><feMergeNode in="SourceGraphic"/></feMerge></filter>
</defs><rect x="6" y="6" width="888" height="230" rx="16" fill="url(#bgnow)" stroke="#1a3a2a" stroke-width="1.5"/><clipPath id="bodynow"><rect x="9" y="53" width="882" height="180"/></clipPath><g clip-path="url(#bodynow)"><rect x="9" y="53" width="882" height="180" fill="url(#gridnow)"/></g><g font-family="'JetBrains Mono','SFMono-Regular',ui-monospace,Consolas,monospace"><circle cx="34" cy="30" r="6.5" fill="#ff5f57"/><circle cx="56" cy="30" r="6.5" fill="#f0b429"/><circle cx="78" cy="30" r="6.5" fill="#3fb950"/><text x="450.0" y="35" text-anchor="middle" font-size="13.5" fill="#6b8a76" letter-spacing="0.5">dr-winner@soc: ~/now</text><line x1="9" y1="52" x2="891" y2="52" stroke="#12261a" stroke-width="1.2"/></g><g font-family="'JetBrains Mono','SFMono-Regular',ui-monospace,Consolas,monospace"><text x="30" y="105" font-size="14"><tspan fill="#3fb950" font-weight="700">❯ </tspan><tspan fill="#56d364" font-weight="700">security ops</tspan></text><text x="210" y="105" font-size="13" fill="#b9cdc1">Agentic AI for the SOC — detections, triage, and automation that removes toil.</text><line x1="30" y1="126" x2="870" y2="126" stroke="#12261a" stroke-width="1"/><text x="30" y="157" font-size="14"><tspan fill="#3fb950" font-weight="700">❯ </tspan><tspan fill="#3fb950" font-weight="700">building</tspan></text><text x="210" y="157" font-size="13" fill="#b9cdc1">Fast, clean interfaces on Next.js + TypeScript; EVM contracts in Solidity + Hardhat.</text><line x1="30" y1="178" x2="870" y2="178" stroke="#12261a" stroke-width="1"/><text x="30" y="209" font-size="14"><tspan fill="#3fb950" font-weight="700">❯ </tspan><tspan fill="#7ee787" font-weight="700">learning</tspan></text><text x="210" y="209" font-size="13" fill="#b9cdc1">Detection engineering, cloud security, and applied LLMs for defensive tooling.</text></g></svg>