<svg xmlns="http://www.w3.org/2000/svg" width="900" height="274" viewBox="0 0 900 274" role="img" aria-label="dr-winner@soc: ~/stack"><defs>
  <linearGradient id="bgstk" x1="0" y1="0" x2="0" y2="1"><stop offset="0" stop-color="#0c1424"/><stop offset="1" stop-color="#06090f"/></linearGradient>
  <pattern id="gridstk" width="24" height="24" patternUnits="userSpaceOnUse"><circle cx="1" cy="1" r="1" fill="#1f9c52" fill-opacity="0.05"/></pattern>
  <filter id="ngstk" x="-40%" y="-60%" width="180%" height="220%"><feGaussianBlur stdDeviation="2" result="b"/><feMerge><feMergeNode in="b"/><feMergeNode in="SourceGraphic"/></feMerge></filter>
</defs><rect x="6" y="6" width="888" height="262" rx="16" fill="url(#bgstk)" stroke="#1a3a2a" stroke-width="1.5"/><clipPath id="bodystk"><rect x="9" y="53" width="882" height="212"/></clipPath><g clip-path="url(#bodystk)"><rect x="9" y="53" width="882" height="212" fill="url(#gridstk)"/></g><g font-family="'JetBrains Mono','SFMono-Regular',ui-monospace,Consolas,monospace"><circle cx="34" cy="30" r="6.5" fill="#ff5f57"/><circle cx="56" cy="30" r="6.5" fill="#f0b429"/><circle cx="78" cy="30" r="6.5" fill="#3fb950"/><text x="450.0" y="35" text-anchor="middle" font-size="13.5" fill="#6b8a76" letter-spacing="0.5">dr-winner@soc: ~/stack</text><line x1="9" y1="52" x2="891" y2="52" stroke="#12261a" stroke-width="1.2"/></g><g font-family="'JetBrains Mono','SFMono-Regular',ui-monospace,Consolas,monospace"><text x="30" y="102" font-size="13.5" fill="#3fb950"><tspan fill="#3fb950" font-weight="700">❯ </tspan><tspan fill="#6b8a76">web &amp; design</tspan></text><rect x="210" y="84" width="78" height="26" rx="13" fill="#0e1a12" stroke="#1c3a26" stroke-width="1"/><circle cx="224" cy="97" r="3.5" fill="#61DAFB"/><text x="234" y="101" font-size="13.5" fill="#d7e6dc">React</text><rect x="296" y="84" width="95" height="26" rx="13" fill="#0e1a12" stroke="#1c3a26" stroke-width="1"/><circle cx="310" cy="97" r="3.5" fill="#eef2f0"/><text x="320" y="101" font-size="13.5" fill="#d7e6dc">Next.js</text><rect x="399" y="84" width="119" height="26" rx="13" fill="#0e1a12" stroke="#1c3a26" stroke-width="1"/><circle cx="413" cy="97" r="3.5" fill="#3178C6"/><text x="423" y="101" font-size="13.5" fill="#d7e6dc">TypeScript</text><rect x="526" y="84" width="103" height="26" rx="13" fill="#0e1a12" stroke="#1c3a26" stroke-width="1"/><circle cx="540" cy="97" r="3.5" fill="#38B2AC"/><text x="550" y="101" font-size="13.5" fill="#d7e6dc">Tailwind</text><rect x="637" y="84" width="78" height="26" rx="13" fill="#0e1a12" stroke="#1c3a26" stroke-width="1"/><circle cx="651" cy="97" r="3.5" fill="#F24E1E"/><text x="661" y="101" font-size="13.5" fill="#d7e6dc">Figma</text><text x="30" y="148" font-size="13.5" fill="#3fb950"><tspan fill="#3fb950" font-weight="700">❯ </tspan><tspan fill="#6b8a76">backend &amp; data</tspan></text><rect x="210" y="130" width="70" height="26" rx="13" fill="#0e1a12" stroke="#1c3a26" stroke-width="1"/><circle cx="224" cy="143" r="3.5" fill="#339933"/><text x="234" y="147" font-size="13.5" fill="#d7e6dc">Node</text><rect x="288" y="130" width="87" height="26" rx="13" fill="#0e1a12" stroke="#1c3a26" stroke-width="1"/><circle cx="302" cy="143" r="3.5" fill="#3776AB"/><text x="312" y="147" font-size="13.5" fill="#d7e6dc">Python</text><rect x="383" y="130" width="119" height="26" rx="13" fill="#0e1a12" stroke="#1c3a26" stroke-width="1"/><circle cx="397" cy="143" r="3.5" fill="#4a9df0"/><text x="407" y="147" font-size="13.5" fill="#d7e6dc">PostgreSQL</text><rect x="510" y="130" width="95" height="26" rx="13" fill="#0e1a12" stroke="#1c3a26" stroke-width="1"/><circle cx="524" cy="143" r="3.5" fill="#47A248"/><text x="534" y="147" font-size="13.5" fill="#d7e6dc">MongoDB</text><rect x="613" y="130" width="87" height="26" rx="13" fill="#0e1a12" stroke="#1c3a26" stroke-width="1"/><circle cx="627" cy="143" r="3.5" fill="#eef2f0"/><text x="637" y="147" font-size="13.5" fill="#d7e6dc">Prisma</text><rect x="707" y="130" width="87" height="26" rx="13" fill="#0e1a12" stroke="#1c3a26" stroke-width="1"/><circle cx="721" cy="143" r="3.5" fill="#2496ED"/><text x="731" y="147" font-size="13.5" fill="#d7e6dc">Docker</text><text x="30" y="194" font-size="13.5" fill="#3fb950"><tspan fill="#3fb950" font-weight="700">❯ </tspan><tspan fill="#6b8a76">security &amp; web3</tspan></text><rect x="210" y="176" width="143" height="26" rx="13" fill="#0e1a12" stroke="#1c3a26" stroke-width="1"/><circle cx="224" cy="189" r="3.5" fill="#9fef00"/><text x="234" y="193" font-size="13.5" fill="#d7e6dc">SOC/Blue-team</text><rect x="361" y="176" width="103" height="26" rx="13" fill="#0e1a12" stroke="#1c3a26" stroke-width="1"/><circle cx="375" cy="189" r="3.5" fill="#c9d6e8"/><text x="385" y="193" font-size="13.5" fill="#d7e6dc">Ethereum</text><rect x="472" y="176" width="103" height="26" rx="13" fill="#0e1a12" stroke="#1c3a26" stroke-width="1"/><circle cx="486" cy="189" r="3.5" fill="#c88b5a"/><text x="496" y="193" font-size="13.5" fill="#d7e6dc">Solidity</text><rect x="583" y="176" width="95" height="26" rx="13" fill="#0e1a12" stroke="#1c3a26" stroke-width="1"/><circle cx="597" cy="189" r="3.5" fill="#f0b429"/><text x="607" y="193" font-size="13.5" fill="#d7e6dc">Hardhat</text><text x="30" y="240" font-size="13.5" fill="#3fb950"><tspan fill="#3fb950" font-weight="700">❯ </tspan><tspan fill="#6b8a76">cloud &amp; ops</tspan></text><rect x="210" y="222" width="62" height="26" rx="13" fill="#0e1a12" stroke="#1c3a26" stroke-width="1"/><circle cx="224" cy="235" r="3.5" fill="#FF9900"/><text x="234" y="239" font-size="13.5" fill="#d7e6dc">AWS</text><rect x="280" y="222" width="62" height="26" rx="13" fill="#0e1a12" stroke="#1c3a26" stroke-width="1"/><circle cx="294" cy="235" r="3.5" fill="#4285F4"/><text x="304" y="239" font-size="13.5" fill="#d7e6dc">GCP</text><rect x="351" y="222" width="87" height="26" rx="13" fill="#0e1a12" stroke="#1c3a26" stroke-width="1"/><circle cx="365" cy="235" r="3.5" fill="#eef2f0"/><text x="375" y="239" font-size="13.5" fill="#d7e6dc">Vercel</text><rect x="445" y="222" width="62" height="26" rx="13" fill="#0e1a12" stroke="#1c3a26" stroke-width="1"/><circle cx="459" cy="235" r="3.5" fill="#F05032"/><text x="469" y="239" font-size="13.5" fill="#d7e6dc">Git</text><rect x="516" y="222" width="95" height="26" rx="13" fill="#0e1a12" stroke="#1c3a26" stroke-width="1"/><circle cx="530" cy="235" r="3.5" fill="#3fb950"/><text x="540" y="239" font-size="13.5" fill="#d7e6dc">Actions</text><rect x="618" y="222" width="70" height="26" rx="13" fill="#0e1a12" stroke="#1c3a26" stroke-width="1"/><circle cx="632" cy="235" r="3.5" fill="#7ee787"/><text x="642" y="239" font-size="13.5" fill="#d7e6dc">Bash</text></g></svg>