<svg xmlns="http://www.w3.org/2000/svg" width="900" height="268" viewBox="0 0 900 268" fill="none"><defs>
  <linearGradient id="gradstk" x1="0" y1="0" x2="1" y2="1">
    <stop offset="0" stop-color="#150e2e"/>
    <stop offset="0.45" stop-color="#1b1440"/>
    <stop offset="1" stop-color="#0a1630"/>
  </linearGradient>
  <linearGradient id="txtstk" x1="0" y1="0" x2="1" y2="0">
    <stop offset="0" stop-color="#e9d5ff"/>
    <stop offset="0.5" stop-color="#c4b5fd"/>
    <stop offset="1" stop-color="#67e8f9"/>
  </linearGradient>
  <linearGradient id="glassstk" x1="0" y1="0" x2="0" y2="1">
    <stop offset="0" stop-color="#ffffff" stop-opacity="0.10"/>
    <stop offset="0.5" stop-color="#ffffff" stop-opacity="0.045"/>
    <stop offset="1" stop-color="#ffffff" stop-opacity="0.02"/>
  </linearGradient>
  <linearGradient id="hairstk" x1="0" y1="0" x2="1" y2="0">
    <stop offset="0" stop-color="#ffffff" stop-opacity="0.28"/>
    <stop offset="0.5" stop-color="#ffffff" stop-opacity="0.10"/>
    <stop offset="1" stop-color="#ffffff" stop-opacity="0.28"/>
  </linearGradient>
  <filter id="blurstk" x="-60%" y="-60%" width="220%" height="220%"><feGaussianBlur stdDeviation="55"/></filter>
  <filter id="softstk" x="-50%" y="-50%" width="200%" height="200%"><feGaussianBlur stdDeviation="10"/></filter>
</defs><clipPath id="clipstk"><rect x="0" y="0" width="900" height="268" rx="24"/></clipPath><rect x="0" y="0" width="900" height="268" rx="24" fill="url(#gradstk)"/><g clip-path="url(#clipstk)" filter="url(#blurstk)" opacity="0.9">
    <circle cx="144" cy="54" r="150" fill="#a855f7" opacity="0.55">
      <animate attributeName="cx" dur="16s" repeatCount="indefinite" values="144;198;144" keyTimes="0;0.5;1"/>
      <animate attributeName="cy" dur="16s" repeatCount="indefinite" values="54;91;54" keyTimes="0;0.5;1"/>
    </circle>
    <circle cx="738" cy="80" r="140" fill="#22d3ee" opacity="0.42">
      <animate attributeName="cx" dur="19s" repeatCount="indefinite" values="738;666;738" keyTimes="0;0.5;1"/>
      <animate attributeName="cy" dur="19s" repeatCount="indefinite" values="80;43;80" keyTimes="0;0.5;1"/>
    </circle>
    <circle cx="495" cy="241" r="130" fill="#ec4899" opacity="0.30">
      <animate attributeName="cx" dur="22s" repeatCount="indefinite" values="495;558;495" keyTimes="0;0.5;1"/>
    </circle>
  </g><rect x="0.75" y="0.75" width="898.5" height="266.5" rx="24" fill="url(#glassstk)" stroke="#ffffff" stroke-opacity="0.14" stroke-width="1.2"/><rect x="14" y="1.5" width="872" height="1.4" rx="1" fill="url(#hairstk)"/><text x="34" y="71" font-family="'Inter','Segoe UI',-apple-system,BlinkMacSystemFont,Helvetica,Arial,sans-serif" font-size="13.5" font-weight="600" fill="#c3bce0">Web &amp; design</text><rect x="230" y="51" width="74" height="30" rx="15" fill="#ffffff" fill-opacity="0.055" stroke="#ffffff" stroke-opacity="0.12"/><circle cx="245" cy="66.0" r="3.6" fill="#22d3ee"/><text x="257" y="70" font-family="'Inter','Segoe UI',-apple-system,BlinkMacSystemFont,Helvetica,Arial,sans-serif" font-size="13" font-weight="500" fill="#f4f2ff">React</text><rect x="314" y="51" width="90" height="30" rx="15" fill="#ffffff" fill-opacity="0.055" stroke="#ffffff" stroke-opacity="0.12"/><circle cx="328.5" cy="66.0" r="3.6" fill="#e9e9ef"/><text x="340" y="70" font-family="'Inter','Segoe UI',-apple-system,BlinkMacSystemFont,Helvetica,Arial,sans-serif" font-size="13" font-weight="500" fill="#f4f2ff">Next.js</text><rect x="412" y="51" width="113" height="30" rx="15" fill="#ffffff" fill-opacity="0.055" stroke="#ffffff" stroke-opacity="0.12"/><circle cx="427.4" cy="66.0" r="3.6" fill="#60a5fa"/><text x="439" y="70" font-family="'Inter','Segoe UI',-apple-system,BlinkMacSystemFont,Helvetica,Arial,sans-serif" font-size="13" font-weight="500" fill="#f4f2ff">TypeScript</text><rect x="534" y="51" width="98" height="30" rx="15" fill="#ffffff" fill-opacity="0.055" stroke="#ffffff" stroke-opacity="0.12"/><circle cx="549.4" cy="66.0" r="3.6" fill="#2dd4bf"/><text x="561" y="70" font-family="'Inter','Segoe UI',-apple-system,BlinkMacSystemFont,Helvetica,Arial,sans-serif" font-size="13" font-weight="500" fill="#f4f2ff">Tailwind</text><rect x="641" y="51" width="74" height="30" rx="15" fill="#ffffff" fill-opacity="0.055" stroke="#ffffff" stroke-opacity="0.12"/><circle cx="656.0" cy="66.0" r="3.6" fill="#fb7185"/><text x="668" y="70" font-family="'Inter','Segoe UI',-apple-system,BlinkMacSystemFont,Helvetica,Arial,sans-serif" font-size="13" font-weight="500" fill="#f4f2ff">Figma</text><text x="34" y="123" font-family="'Inter','Segoe UI',-apple-system,BlinkMacSystemFont,Helvetica,Arial,sans-serif" font-size="13.5" font-weight="600" fill="#c3bce0">Backend &amp; data</text><rect x="230" y="103" width="67" height="30" rx="15" fill="#ffffff" fill-opacity="0.055" stroke="#ffffff" stroke-opacity="0.12"/><circle cx="245" cy="118.0" r="3.6" fill="#4ade80"/><text x="257" y="122" font-family="'Inter','Segoe UI',-apple-system,BlinkMacSystemFont,Helvetica,Arial,sans-serif" font-size="13" font-weight="500" fill="#f4f2ff">Node</text><rect x="306" y="103" width="82" height="30" rx="15" fill="#ffffff" fill-opacity="0.055" stroke="#ffffff" stroke-opacity="0.12"/><circle cx="320.8" cy="118.0" r="3.6" fill="#60a5fa"/><text x="333" y="122" font-family="'Inter','Segoe UI',-apple-system,BlinkMacSystemFont,Helvetica,Arial,sans-serif" font-size="13" font-weight="500" fill="#f4f2ff">Python</text><rect x="397" y="103" width="113" height="30" rx="15" fill="#ffffff" fill-opacity="0.055" stroke="#ffffff" stroke-opacity="0.12"/><circle cx="412.0" cy="118.0" r="3.6" fill="#818cf8"/><text x="424" y="122" font-family="'Inter','Segoe UI',-apple-system,BlinkMacSystemFont,Helvetica,Arial,sans-serif" font-size="13" font-weight="500" fill="#f4f2ff">PostgreSQL</text><rect x="519" y="103" width="90" height="30" rx="15" fill="#ffffff" fill-opacity="0.055" stroke="#ffffff" stroke-opacity="0.12"/><circle cx="534.0" cy="118.0" r="3.6" fill="#4ade80"/><text x="546" y="122" font-family="'Inter','Segoe UI',-apple-system,BlinkMacSystemFont,Helvetica,Arial,sans-serif" font-size="13" font-weight="500" fill="#f4f2ff">MongoDB</text><rect x="618" y="103" width="82" height="30" rx="15" fill="#ffffff" fill-opacity="0.055" stroke="#ffffff" stroke-opacity="0.12"/><circle cx="632.9" cy="118.0" r="3.6" fill="#e9e9ef"/><text x="645" y="122" font-family="'Inter','Segoe UI',-apple-system,BlinkMacSystemFont,Helvetica,Arial,sans-serif" font-size="13" font-weight="500" fill="#f4f2ff">Prisma</text><rect x="709" y="103" width="82" height="30" rx="15" fill="#ffffff" fill-opacity="0.055" stroke="#ffffff" stroke-opacity="0.12"/><circle cx="724.1" cy="118.0" r="3.6" fill="#38bdf8"/><text x="736" y="122" font-family="'Inter','Segoe UI',-apple-system,BlinkMacSystemFont,Helvetica,Arial,sans-serif" font-size="13" font-weight="500" fill="#f4f2ff">Docker</text><text x="34" y="175" font-family="'Inter','Segoe UI',-apple-system,BlinkMacSystemFont,Helvetica,Arial,sans-serif" font-size="13.5" font-weight="600" fill="#c3bce0">Security &amp; web3</text><rect x="230" y="155" width="152" height="30" rx="15" fill="#ffffff" fill-opacity="0.055" stroke="#ffffff" stroke-opacity="0.12"/><circle cx="245" cy="170.0" r="3.6" fill="#a3e635"/><text x="257" y="174" font-family="'Inter','Segoe UI',-apple-system,BlinkMacSystemFont,Helvetica,Arial,sans-serif" font-size="13" font-weight="500" fill="#f4f2ff">SOC / Blue-team</text><rect x="390" y="155" width="98" height="30" rx="15" fill="#ffffff" fill-opacity="0.055" stroke="#ffffff" stroke-opacity="0.12"/><circle cx="405.5" cy="170.0" r="3.6" fill="#c4b5fd"/><text x="418" y="174" font-family="'Inter','Segoe UI',-apple-system,BlinkMacSystemFont,Helvetica,Arial,sans-serif" font-size="13" font-weight="500" fill="#f4f2ff">Ethereum</text><rect x="497" y="155" width="98" height="30" rx="15" fill="#ffffff" fill-opacity="0.055" stroke="#ffffff" stroke-opacity="0.12"/><circle cx="512.1" cy="170.0" r="3.6" fill="#f0abfc"/><text x="524" y="174" font-family="'Inter','Segoe UI',-apple-system,BlinkMacSystemFont,Helvetica,Arial,sans-serif" font-size="13" font-weight="500" fill="#f4f2ff">Solidity</text><rect x="604" y="155" width="90" height="30" rx="15" fill="#ffffff" fill-opacity="0.055" stroke="#ffffff" stroke-opacity="0.12"/><circle cx="618.7" cy="170.0" r="3.6" fill="#fbbf24"/><text x="631" y="174" font-family="'Inter','Segoe UI',-apple-system,BlinkMacSystemFont,Helvetica,Arial,sans-serif" font-size="13" font-weight="500" fill="#f4f2ff">Hardhat</text><text x="34" y="227" font-family="'Inter','Segoe UI',-apple-system,BlinkMacSystemFont,Helvetica,Arial,sans-serif" font-size="13.5" font-weight="600" fill="#c3bce0">Cloud &amp; ops</text><rect x="230" y="207" width="59" height="30" rx="15" fill="#ffffff" fill-opacity="0.055" stroke="#ffffff" stroke-opacity="0.12"/><circle cx="245" cy="222.0" r="3.6" fill="#fbbf24"/><text x="257" y="226" font-family="'Inter','Segoe UI',-apple-system,BlinkMacSystemFont,Helvetica,Arial,sans-serif" font-size="13" font-weight="500" fill="#f4f2ff">AWS</text><rect x="298" y="207" width="59" height="30" rx="15" fill="#ffffff" fill-opacity="0.055" stroke="#ffffff" stroke-opacity="0.12"/><circle cx="313.1" cy="222.0" r="3.6" fill="#60a5fa"/><text x="325" y="226" font-family="'Inter','Segoe UI',-apple-system,BlinkMacSystemFont,Helvetica,Arial,sans-serif" font-size="13" font-weight="500" fill="#f4f2ff">GCP</text><rect x="366" y="207" width="82" height="30" rx="15" fill="#ffffff" fill-opacity="0.055" stroke="#ffffff" stroke-opacity="0.12"/><circle cx="381.20000000000005" cy="222.0" r="3.6" fill="#e9e9ef"/><text x="393" y="226" font-family="'Inter','Segoe UI',-apple-system,BlinkMacSystemFont,Helvetica,Arial,sans-serif" font-size="13" font-weight="500" fill="#f4f2ff">Vercel</text><rect x="457" y="207" width="59" height="30" rx="15" fill="#ffffff" fill-opacity="0.055" stroke="#ffffff" stroke-opacity="0.12"/><circle cx="472.40000000000003" cy="222.0" r="3.6" fill="#fb7185"/><text x="484" y="226" font-family="'Inter','Segoe UI',-apple-system,BlinkMacSystemFont,Helvetica,Arial,sans-serif" font-size="13" font-weight="500" fill="#f4f2ff">Git</text><rect x="526" y="207" width="90" height="30" rx="15" fill="#ffffff" fill-opacity="0.055" stroke="#ffffff" stroke-opacity="0.12"/><circle cx="540.5" cy="222.0" r="3.6" fill="#a855f7"/><text x="552" y="226" font-family="'Inter','Segoe UI',-apple-system,BlinkMacSystemFont,Helvetica,Arial,sans-serif" font-size="13" font-weight="500" fill="#f4f2ff">Actions</text><rect x="624" y="207" width="67" height="30" rx="15" fill="#ffffff" fill-opacity="0.055" stroke="#ffffff" stroke-opacity="0.12"/><circle cx="639.4" cy="222.0" r="3.6" fill="#4ade80"/><text x="651" y="226" font-family="'Inter','Segoe UI',-apple-system,BlinkMacSystemFont,Helvetica,Arial,sans-serif" font-size="13" font-weight="500" fill="#f4f2ff">Bash</text></svg>